<?xml version="1.0" encoding="utf-8"?>
<svg xmlns="http://www.w3.org/2000/svg" xmlns:xlink="http://www.w3.org/1999/xlink" width="600" height="400" viewBox="0 0 2400 1600">
<defs>
  <clipPath id="clip930">
    <rect x="0" y="0" width="2400" height="1600"/>
  </clipPath>
</defs>
<path clip-path="url(#clip930)" d="M0 1600 L2400 1600 L2400 0 L0 0  Z" fill="#ffffff" fill-rule="evenodd" fill-opacity="1"/>
<defs>
  <clipPath id="clip931">
    <rect x="480" y="0" width="1681" height="1600"/>
  </clipPath>
</defs>
<path clip-path="url(#clip930)" d="M234.125 1423.18 L2352.76 1423.18 L2352.76 123.472 L234.125 123.472  Z" fill="#ffffff" fill-rule="evenodd" fill-opacity="1"/>
<defs>
  <clipPath id="clip932">
    <rect x="234" y="123" width="2120" height="1301"/>
  </clipPath>
</defs>
<polyline clip-path="url(#clip932)" style="stroke:#000000; stroke-linecap:round; stroke-linejoin:round; stroke-width:2; stroke-opacity:0.1; fill:none" points="254.896,1423.18 254.896,123.472 "/>
<polyline clip-path="url(#clip932)" style="stroke:#000000; stroke-linecap:round; stroke-linejoin:round; stroke-width:2; stroke-opacity:0.1; fill:none" points="646.8,1423.18 646.8,123.472 "/>
<polyline clip-path="url(#clip932)" style="stroke:#000000; stroke-linecap:round; stroke-linejoin:round; stroke-width:2; stroke-opacity:0.1; fill:none" points="1038.7,1423.18 1038.7,123.472 "/>
<polyline clip-path="url(#clip932)" style="stroke:#000000; stroke-linecap:round; stroke-linejoin:round; stroke-width:2; stroke-opacity:0.1; fill:none" points="1430.61,1423.18 1430.61,123.472 "/>
<polyline clip-path="url(#clip932)" style="stroke:#000000; stroke-linecap:round; stroke-linejoin:round; stroke-width:2; stroke-opacity:0.1; fill:none" points="1822.51,1423.18 1822.51,123.472 "/>
<polyline clip-path="url(#clip932)" style="stroke:#000000; stroke-linecap:round; stroke-linejoin:round; stroke-width:2; stroke-opacity:0.1; fill:none" points="2214.41,1423.18 2214.41,123.472 "/>
<polyline clip-path="url(#clip930)" style="stroke:#000000; stroke-linecap:round; stroke-linejoin:round; stroke-width:4; stroke-opacity:1; fill:none" points="234.125,1423.18 2352.76,1423.18 "/>
<polyline clip-path="url(#clip930)" style="stroke:#000000; stroke-linecap:round; stroke-linejoin:round; stroke-width:4; stroke-opacity:1; fill:none" points="254.896,1423.18 254.896,1404.28 "/>
<polyline clip-path="url(#clip930)" style="stroke:#000000; stroke-linecap:round; stroke-linejoin:round; stroke-width:4; stroke-opacity:1; fill:none" points="646.8,1423.18 646.8,1404.28 "/>
<polyline clip-path="url(#clip930)" style="stroke:#000000; stroke-linecap:round; stroke-linejoin:round; stroke-width:4; stroke-opacity:1; fill:none" points="1038.7,1423.18 1038.7,1404.28 "/>
<polyline clip-path="url(#clip930)" style="stroke:#000000; stroke-linecap:round; stroke-linejoin:round; stroke-width:4; stroke-opacity:1; fill:none" points="1430.61,1423.18 1430.61,1404.28 "/>
<polyline clip-path="url(#clip930)" style="stroke:#000000; stroke-linecap:round; stroke-linejoin:round; stroke-width:4; stroke-opacity:1; fill:none" points="1822.51,1423.18 1822.51,1404.28 "/>
<polyline clip-path="url(#clip930)" style="stroke:#000000; stroke-linecap:round; stroke-linejoin:round; stroke-width:4; stroke-opacity:1; fill:none" points="2214.41,1423.18 2214.41,1404.28 "/>
<path clip-path="url(#clip930)" d="M254.896 1454.1 Q251.285 1454.1 249.457 1457.66 Q247.651 1461.2 247.651 1468.33 Q247.651 1475.44 249.457 1479.01 Q251.285 1482.55 254.896 1482.55 Q258.531 1482.55 260.336 1479.01 Q262.165 1475.44 262.165 1468.33 Q262.165 1461.2 260.336 1457.66 Q258.531 1454.1 254.896 1454.1 M254.896 1450.39 Q260.706 1450.39 263.762 1455 Q266.841 1459.58 266.841 1468.33 Q266.841 1477.06 263.762 1481.67 Q260.706 1486.25 254.896 1486.25 Q249.086 1486.25 246.007 1481.67 Q242.952 1477.06 242.952 1468.33 Q242.952 1459.58 246.007 1455 Q249.086 1450.39 254.896 1450.39 Z" fill="#000000" fill-rule="nonzero" fill-opacity="1" /><path clip-path="url(#clip930)" d="M621.487 1481.64 L629.126 1481.64 L629.126 1455.28 L620.816 1456.95 L620.816 1452.69 L629.08 1451.02 L633.756 1451.02 L633.756 1481.64 L641.395 1481.64 L641.395 1485.58 L621.487 1485.58 L621.487 1481.64 Z" fill="#000000" fill-rule="nonzero" fill-opacity="1" /><path clip-path="url(#clip930)" d="M660.839 1454.1 Q657.228 1454.1 655.399 1457.66 Q653.594 1461.2 653.594 1468.33 Q653.594 1475.44 655.399 1479.01 Q657.228 1482.55 660.839 1482.55 Q664.473 1482.55 666.279 1479.01 Q668.108 1475.44 668.108 1468.33 Q668.108 1461.2 666.279 1457.66 Q664.473 1454.1 660.839 1454.1 M660.839 1450.39 Q666.649 1450.39 669.705 1455 Q672.784 1459.58 672.784 1468.33 Q672.784 1477.06 669.705 1481.67 Q666.649 1486.25 660.839 1486.25 Q655.029 1486.25 651.95 1481.67 Q648.895 1477.06 648.895 1468.33 Q648.895 1459.58 651.95 1455 Q655.029 1450.39 660.839 1450.39 Z" fill="#000000" fill-rule="nonzero" fill-opacity="1" /><path clip-path="url(#clip930)" d="M1017.48 1481.64 L1033.8 1481.64 L1033.8 1485.58 L1011.85 1485.58 L1011.85 1481.64 Q1014.51 1478.89 1019.1 1474.26 Q1023.7 1469.61 1024.88 1468.27 Q1027.13 1465.74 1028.01 1464.01 Q1028.91 1462.25 1028.91 1460.56 Q1028.91 1457.8 1026.97 1456.07 Q1025.05 1454.33 1021.94 1454.33 Q1019.75 1454.33 1017.29 1455.09 Q1014.86 1455.86 1012.08 1457.41 L1012.08 1452.69 Q1014.91 1451.55 1017.36 1450.97 Q1019.81 1450.39 1021.85 1450.39 Q1027.22 1450.39 1030.42 1453.08 Q1033.61 1455.77 1033.61 1460.26 Q1033.61 1462.39 1032.8 1464.31 Q1032.01 1466.2 1029.91 1468.8 Q1029.33 1469.47 1026.23 1472.69 Q1023.12 1475.88 1017.48 1481.64 Z" fill="#000000" fill-rule="nonzero" fill-opacity="1" /><path clip-path="url(#clip930)" d="M1053.61 1454.1 Q1050 1454.1 1048.17 1457.66 Q1046.37 1461.2 1046.37 1468.33 Q1046.37 1475.44 1048.17 1479.01 Q1050 1482.55 1053.61 1482.55 Q1057.24 1482.55 1059.05 1479.01 Q1060.88 1475.44 1060.88 1468.33 Q1060.88 1461.2 1059.05 1457.66 Q1057.24 1454.1 1053.61 1454.1 M1053.61 1450.39 Q1059.42 1450.39 1062.48 1455 Q1065.56 1459.58 1065.56 1468.33 Q1065.56 1477.06 1062.48 1481.67 Q1059.42 1486.25 1053.61 1486.25 Q1047.8 1486.25 1044.72 1481.67 Q1041.67 1477.06 1041.67 1468.33 Q1041.67 1459.58 1044.72 1455 Q1047.8 1450.39 1053.61 1450.39 Z" fill="#000000" fill-rule="nonzero" fill-opacity="1" /><path clip-path="url(#clip930)" d="M1419.45 1466.95 Q1422.81 1467.66 1424.68 1469.93 Q1426.58 1472.2 1426.58 1475.53 Q1426.58 1480.65 1423.06 1483.45 Q1419.54 1486.25 1413.06 1486.25 Q1410.88 1486.25 1408.57 1485.81 Q1406.28 1485.39 1403.82 1484.54 L1403.82 1480.02 Q1405.77 1481.16 1408.08 1481.74 Q1410.4 1482.32 1412.92 1482.32 Q1417.32 1482.32 1419.61 1480.58 Q1421.93 1478.84 1421.93 1475.53 Q1421.93 1472.48 1419.77 1470.77 Q1417.64 1469.03 1413.82 1469.03 L1409.8 1469.03 L1409.8 1465.19 L1414.01 1465.19 Q1417.46 1465.19 1419.29 1463.82 Q1421.12 1462.43 1421.12 1459.84 Q1421.12 1457.18 1419.22 1455.77 Q1417.34 1454.33 1413.82 1454.33 Q1411.9 1454.33 1409.7 1454.75 Q1407.51 1455.16 1404.87 1456.04 L1404.87 1451.88 Q1407.53 1451.14 1409.84 1450.77 Q1412.18 1450.39 1414.24 1450.39 Q1419.57 1450.39 1422.67 1452.83 Q1425.77 1455.23 1425.77 1459.35 Q1425.77 1462.22 1424.13 1464.21 Q1422.48 1466.18 1419.45 1466.95 Z" fill="#000000" fill-rule="nonzero" fill-opacity="1" /><path clip-path="url(#clip930)" d="M1445.44 1454.1 Q1441.83 1454.1 1440.01 1457.66 Q1438.2 1461.2 1438.2 1468.33 Q1438.2 1475.44 1440.01 1479.01 Q1441.83 1482.55 1445.44 1482.55 Q1449.08 1482.55 1450.88 1479.01 Q1452.71 1475.44 1452.71 1468.33 Q1452.71 1461.2 1450.88 1457.66 Q1449.08 1454.1 1445.44 1454.1 M1445.44 1450.39 Q1451.25 1450.39 1454.31 1455 Q1457.39 1459.58 1457.39 1468.33 Q1457.39 1477.06 1454.31 1481.67 Q1451.25 1486.25 1445.44 1486.25 Q1439.63 1486.25 1436.56 1481.67 Q1433.5 1477.06 1433.5 1468.33 Q1433.5 1459.58 1436.56 1455 Q1439.63 1450.39 1445.44 1450.39 Z" fill="#000000" fill-rule="nonzero" fill-opacity="1" /><path clip-path="url(#clip930)" d="M1810.68 1455.09 L1798.88 1473.54 L1810.68 1473.54 L1810.68 1455.09 M1809.45 1451.02 L1815.33 1451.02 L1815.33 1473.54 L1820.27 1473.54 L1820.27 1477.43 L1815.33 1477.43 L1815.33 1485.58 L1810.68 1485.58 L1810.68 1477.43 L1795.08 1477.43 L1795.08 1472.92 L1809.45 1451.02 Z" fill="#000000" fill-rule="nonzero" fill-opacity="1" /><path clip-path="url(#clip930)" d="M1838 1454.1 Q1834.39 1454.1 1832.56 1457.66 Q1830.75 1461.2 1830.75 1468.33 Q1830.75 1475.44 1832.56 1479.01 Q1834.39 1482.55 1838 1482.55 Q1841.63 1482.55 1843.44 1479.01 Q1845.26 1475.44 1845.26 1468.33 Q1845.26 1461.2 1843.44 1457.66 Q1841.63 1454.1 1838 1454.1 M1838 1450.39 Q1843.81 1450.39 1846.86 1455 Q1849.94 1459.58 1849.94 1468.33 Q1849.94 1477.06 1846.86 1481.67 Q1843.81 1486.25 1838 1486.25 Q1832.19 1486.25 1829.11 1481.67 Q1826.05 1477.06 1826.05 1468.33 Q1826.05 1459.58 1829.11 1455 Q1832.19 1450.39 1838 1450.39 Z" fill="#000000" fill-rule="nonzero" fill-opacity="1" /><path clip-path="url(#clip930)" d="M2189.11 1451.02 L2207.47 1451.02 L2207.47 1454.96 L2193.4 1454.96 L2193.4 1463.43 Q2194.41 1463.08 2195.43 1462.92 Q2196.45 1462.73 2197.47 1462.73 Q2203.26 1462.73 2206.64 1465.9 Q2210.02 1469.08 2210.02 1474.49 Q2210.02 1480.07 2206.54 1483.17 Q2203.07 1486.25 2196.75 1486.25 Q2194.58 1486.25 2192.31 1485.88 Q2190.06 1485.51 2187.65 1484.77 L2187.65 1480.07 Q2189.74 1481.2 2191.96 1481.76 Q2194.18 1482.32 2196.66 1482.32 Q2200.66 1482.32 2203 1480.21 Q2205.34 1478.1 2205.34 1474.49 Q2205.34 1470.88 2203 1468.77 Q2200.66 1466.67 2196.66 1466.67 Q2194.78 1466.67 2192.91 1467.08 Q2191.06 1467.5 2189.11 1468.38 L2189.11 1451.02 Z" fill="#000000" fill-rule="nonzero" fill-opacity="1" /><path clip-path="url(#clip930)" d="M2229.23 1454.1 Q2225.62 1454.1 2223.79 1457.66 Q2221.98 1461.2 2221.98 1468.33 Q2221.98 1475.44 2223.79 1479.01 Q2225.62 1482.55 2229.23 1482.55 Q2232.86 1482.55 2234.67 1479.01 Q2236.5 1475.44 2236.5 1468.33 Q2236.5 1461.2 2234.67 1457.66 Q2232.86 1454.1 2229.23 1454.1 M2229.23 1450.39 Q2235.04 1450.39 2238.09 1455 Q2241.17 1459.58 2241.17 1468.33 Q2241.17 1477.06 2238.09 1481.67 Q2235.04 1486.25 2229.23 1486.25 Q2223.42 1486.25 2220.34 1481.67 Q2217.28 1477.06 2217.28 1468.33 Q2217.28 1459.58 2220.34 1455 Q2223.42 1450.39 2229.23 1450.39 Z" fill="#000000" fill-rule="nonzero" fill-opacity="1" /><path clip-path="url(#clip930)" d="M1161.16 1520.52 L1167.59 1520.52 L1167.59 1568.04 L1161.16 1568.04 L1161.16 1520.52 Z" fill="#000000" fill-rule="nonzero" fill-opacity="1" /><path clip-path="url(#clip930)" d="M1185.92 1522.27 L1185.92 1532.4 L1197.99 1532.4 L1197.99 1536.95 L1185.92 1536.95 L1185.92 1556.3 Q1185.92 1560.66 1187.1 1561.9 Q1188.31 1563.14 1191.97 1563.14 L1197.99 1563.14 L1197.99 1568.04 L1191.97 1568.04 Q1185.19 1568.04 1182.61 1565.53 Q1180.04 1562.98 1180.04 1556.3 L1180.04 1536.95 L1175.74 1536.95 L1175.74 1532.4 L1180.04 1532.4 L1180.04 1522.27 L1185.92 1522.27 Z" fill="#000000" fill-rule="nonzero" fill-opacity="1" /><path clip-path="url(#clip930)" d="M1236.18 1548.76 L1236.18 1551.62 L1209.25 1551.62 Q1209.64 1557.67 1212.88 1560.85 Q1216.16 1564 1221.99 1564 Q1225.36 1564 1228.51 1563.17 Q1231.69 1562.35 1234.81 1560.69 L1234.81 1566.23 Q1231.66 1567.57 1228.35 1568.27 Q1225.04 1568.97 1221.64 1568.97 Q1213.11 1568.97 1208.11 1564 Q1203.14 1559.04 1203.14 1550.57 Q1203.14 1541.82 1207.85 1536.69 Q1212.6 1531.54 1220.62 1531.54 Q1227.81 1531.54 1231.98 1536.18 Q1236.18 1540.8 1236.18 1548.76 M1230.32 1547.04 Q1230.26 1542.23 1227.62 1539.37 Q1225.01 1536.5 1220.68 1536.5 Q1215.78 1536.5 1212.82 1539.27 Q1209.89 1542.04 1209.45 1547.07 L1230.32 1547.04 Z" fill="#000000" fill-rule="nonzero" fill-opacity="1" /><path clip-path="url(#clip930)" d="M1266.45 1537.87 Q1265.46 1537.3 1264.29 1537.04 Q1263.14 1536.76 1261.74 1536.76 Q1256.77 1536.76 1254.1 1540 Q1251.46 1543.22 1251.46 1549.27 L1251.46 1568.04 L1245.57 1568.04 L1245.57 1532.4 L1251.46 1532.4 L1251.46 1537.93 Q1253.3 1534.69 1256.26 1533.13 Q1259.23 1531.54 1263.46 1531.54 Q1264.06 1531.54 1264.79 1531.63 Q1265.53 1531.7 1266.42 1531.85 L1266.45 1537.87 Z" fill="#000000" fill-rule="nonzero" fill-opacity="1" /><path clip-path="url(#clip930)" d="M1288.79 1550.12 Q1281.7 1550.12 1278.96 1551.75 Q1276.22 1553.37 1276.22 1557.29 Q1276.22 1560.4 1278.26 1562.25 Q1280.33 1564.07 1283.86 1564.07 Q1288.73 1564.07 1291.66 1560.63 Q1294.62 1557.16 1294.62 1551.43 L1294.62 1550.12 L1288.79 1550.12 M1300.47 1547.71 L1300.47 1568.04 L1294.62 1568.04 L1294.62 1562.63 Q1292.61 1565.88 1289.62 1567.44 Q1286.63 1568.97 1282.3 1568.97 Q1276.83 1568.97 1273.58 1565.91 Q1270.36 1562.82 1270.36 1557.67 Q1270.36 1551.65 1274.38 1548.6 Q1278.42 1545.54 1286.41 1545.54 L1294.62 1545.54 L1294.62 1544.97 Q1294.62 1540.93 1291.94 1538.73 Q1289.3 1536.5 1284.5 1536.5 Q1281.44 1536.5 1278.54 1537.23 Q1275.65 1537.97 1272.97 1539.43 L1272.97 1534.02 Q1276.19 1532.78 1279.21 1532.17 Q1282.24 1531.54 1285.1 1531.54 Q1292.84 1531.54 1296.66 1535.55 Q1300.47 1539.56 1300.47 1547.71 Z" fill="#000000" fill-rule="nonzero" fill-opacity="1" /><path clip-path="url(#clip930)" d="M1318.33 1522.27 L1318.33 1532.4 L1330.39 1532.4 L1330.39 1536.95 L1318.33 1536.95 L1318.33 1556.3 Q1318.33 1560.66 1319.51 1561.9 Q1320.72 1563.14 1324.38 1563.14 L1330.39 1563.14 L1330.39 1568.04 L1324.38 1568.04 Q1317.6 1568.04 1315.02 1565.53 Q1312.44 1562.98 1312.44 1556.3 L1312.44 1536.95 L1308.15 1536.95 L1308.15 1532.4 L1312.44 1532.4 L1312.44 1522.27 L1318.33 1522.27 Z" fill="#000000" fill-rule="nonzero" fill-opacity="1" /><path clip-path="url(#clip930)" d="M1338.1 1532.4 L1343.95 1532.4 L1343.95 1568.04 L1338.1 1568.04 L1338.1 1532.4 M1338.1 1518.52 L1343.95 1518.52 L1343.95 1525.93 L1338.1 1525.93 L1338.1 1518.52 Z" fill="#000000" fill-rule="nonzero" fill-opacity="1" /><path clip-path="url(#clip930)" d="M1370.02 1536.5 Q1365.31 1536.5 1362.57 1540.19 Q1359.83 1543.85 1359.83 1550.25 Q1359.83 1556.65 1362.54 1560.34 Q1365.28 1564 1370.02 1564 Q1374.7 1564 1377.44 1560.31 Q1380.17 1556.62 1380.17 1550.25 Q1380.17 1543.92 1377.44 1540.23 Q1374.7 1536.5 1370.02 1536.5 M1370.02 1531.54 Q1377.66 1531.54 1382.02 1536.5 Q1386.38 1541.47 1386.38 1550.25 Q1386.38 1559 1382.02 1564 Q1377.66 1568.97 1370.02 1568.97 Q1362.35 1568.97 1357.99 1564 Q1353.66 1559 1353.66 1550.25 Q1353.66 1541.47 1357.99 1536.5 Q1362.35 1531.54 1370.02 1531.54 Z" fill="#000000" fill-rule="nonzero" fill-opacity="1" /><path clip-path="url(#clip930)" d="M1425.72 1546.53 L1425.72 1568.04 L1419.86 1568.04 L1419.86 1546.72 Q1419.86 1541.66 1417.89 1539.14 Q1415.92 1536.63 1411.97 1536.63 Q1407.23 1536.63 1404.49 1539.65 Q1401.75 1542.68 1401.75 1547.9 L1401.75 1568.04 L1395.86 1568.04 L1395.86 1532.4 L1401.75 1532.4 L1401.75 1537.93 Q1403.85 1534.72 1406.69 1533.13 Q1409.55 1531.54 1413.28 1531.54 Q1419.42 1531.54 1422.57 1535.36 Q1425.72 1539.14 1425.72 1546.53 Z" fill="#000000" fill-rule="nonzero" fill-opacity="1" /><polyline clip-path="url(#clip932)" style="stroke:#000000; stroke-linecap:round; stroke-linejoin:round; stroke-width:2; stroke-opacity:0.1; fill:none" points="234.125,1386.84 2352.76,1386.84 "/>
<polyline clip-path="url(#clip932)" style="stroke:#000000; stroke-linecap:round; stroke-linejoin:round; stroke-width:2; stroke-opacity:0.1; fill:none" points="234.125,1120.31 2352.76,1120.31 "/>
<polyline clip-path="url(#clip932)" style="stroke:#000000; stroke-linecap:round; stroke-linejoin:round; stroke-width:2; stroke-opacity:0.1; fill:none" points="234.125,853.771 2352.76,853.771 "/>
<polyline clip-path="url(#clip932)" style="stroke:#000000; stroke-linecap:round; stroke-linejoin:round; stroke-width:2; stroke-opacity:0.1; fill:none" points="234.125,587.236 2352.76,587.236 "/>
<polyline clip-path="url(#clip932)" style="stroke:#000000; stroke-linecap:round; stroke-linejoin:round; stroke-width:2; stroke-opacity:0.1; fill:none" points="234.125,320.7 2352.76,320.7 "/>
<polyline clip-path="url(#clip930)" style="stroke:#000000; stroke-linecap:round; stroke-linejoin:round; stroke-width:4; stroke-opacity:1; fill:none" points="234.125,1423.18 234.125,123.472 "/>
<polyline clip-path="url(#clip930)" style="stroke:#000000; stroke-linecap:round; stroke-linejoin:round; stroke-width:4; stroke-opacity:1; fill:none" points="234.125,1386.84 253.023,1386.84 "/>
<polyline clip-path="url(#clip930)" style="stroke:#000000; stroke-linecap:round; stroke-linejoin:round; stroke-width:4; stroke-opacity:1; fill:none" points="234.125,1120.31 253.023,1120.31 "/>
<polyline clip-path="url(#clip930)" style="stroke:#000000; stroke-linecap:round; stroke-linejoin:round; stroke-width:4; stroke-opacity:1; fill:none" points="234.125,853.771 253.023,853.771 "/>
<polyline clip-path="url(#clip930)" style="stroke:#000000; stroke-linecap:round; stroke-linejoin:round; stroke-width:4; stroke-opacity:1; fill:none" points="234.125,587.236 253.023,587.236 "/>
<polyline clip-path="url(#clip930)" style="stroke:#000000; stroke-linecap:round; stroke-linejoin:round; stroke-width:4; stroke-opacity:1; fill:none" points="234.125,320.7 253.023,320.7 "/>
<path clip-path="url(#clip930)" d="M186.181 1372.64 Q182.57 1372.64 180.741 1376.21 Q178.936 1379.75 178.936 1386.88 Q178.936 1393.98 180.741 1397.55 Q182.57 1401.09 186.181 1401.09 Q189.815 1401.09 191.621 1397.55 Q193.45 1393.98 193.45 1386.88 Q193.45 1379.75 191.621 1376.21 Q189.815 1372.64 186.181 1372.64 M186.181 1368.94 Q191.991 1368.94 195.047 1373.54 Q198.125 1378.13 198.125 1386.88 Q198.125 1395.6 195.047 1400.21 Q191.991 1404.79 186.181 1404.79 Q180.371 1404.79 177.292 1400.21 Q174.237 1395.6 174.237 1386.88 Q174.237 1378.13 177.292 1373.54 Q180.371 1368.94 186.181 1368.94 Z" fill="#000000" fill-rule="nonzero" fill-opacity="1" /><path clip-path="url(#clip930)" d="M146.066 1103.03 L164.422 1103.03 L164.422 1106.96 L150.348 1106.96 L150.348 1115.43 Q151.366 1115.09 152.385 1114.92 Q153.403 1114.74 154.422 1114.74 Q160.209 1114.74 163.589 1117.91 Q166.968 1121.08 166.968 1126.5 Q166.968 1132.08 163.496 1135.18 Q160.024 1138.26 153.704 1138.26 Q151.528 1138.26 149.26 1137.89 Q147.015 1137.52 144.607 1136.78 L144.607 1132.08 Q146.691 1133.21 148.913 1133.77 Q151.135 1134.32 153.612 1134.32 Q157.616 1134.32 159.954 1132.22 Q162.292 1130.11 162.292 1126.5 Q162.292 1122.89 159.954 1120.78 Q157.616 1118.67 153.612 1118.67 Q151.737 1118.67 149.862 1119.09 Q148.01 1119.51 146.066 1120.39 L146.066 1103.03 Z" fill="#000000" fill-rule="nonzero" fill-opacity="1" /><path clip-path="url(#clip930)" d="M186.181 1106.11 Q182.57 1106.11 180.741 1109.67 Q178.936 1113.21 178.936 1120.34 Q178.936 1127.45 180.741 1131.01 Q182.57 1134.55 186.181 1134.55 Q189.815 1134.55 191.621 1131.01 Q193.45 1127.45 193.45 1120.34 Q193.45 1113.21 191.621 1109.67 Q189.815 1106.11 186.181 1106.11 M186.181 1102.4 Q191.991 1102.4 195.047 1107.01 Q198.125 1111.59 198.125 1120.34 Q198.125 1129.07 195.047 1133.67 Q191.991 1138.26 186.181 1138.26 Q180.371 1138.26 177.292 1133.67 Q174.237 1129.07 174.237 1120.34 Q174.237 1111.59 177.292 1107.01 Q180.371 1102.4 186.181 1102.4 Z" fill="#000000" fill-rule="nonzero" fill-opacity="1" /><path clip-path="url(#clip930)" d="M116.668 867.116 L124.306 867.116 L124.306 840.75 L115.996 842.417 L115.996 838.158 L124.26 836.491 L128.936 836.491 L128.936 867.116 L136.575 867.116 L136.575 871.051 L116.668 871.051 L116.668 867.116 Z" fill="#000000" fill-rule="nonzero" fill-opacity="1" /><path clip-path="url(#clip930)" d="M156.019 839.57 Q152.408 839.57 150.579 843.135 Q148.774 846.676 148.774 853.806 Q148.774 860.912 150.579 864.477 Q152.408 868.019 156.019 868.019 Q159.653 868.019 161.459 864.477 Q163.288 860.912 163.288 853.806 Q163.288 846.676 161.459 843.135 Q159.653 839.57 156.019 839.57 M156.019 835.866 Q161.829 835.866 164.885 840.473 Q167.964 845.056 167.964 853.806 Q167.964 862.533 164.885 867.139 Q161.829 871.722 156.019 871.722 Q150.209 871.722 147.13 867.139 Q144.075 862.533 144.075 853.806 Q144.075 845.056 147.13 840.473 Q150.209 835.866 156.019 835.866 Z" fill="#000000" fill-rule="nonzero" fill-opacity="1" /><path clip-path="url(#clip930)" d="M186.181 839.57 Q182.57 839.57 180.741 843.135 Q178.936 846.676 178.936 853.806 Q178.936 860.912 180.741 864.477 Q182.57 868.019 186.181 868.019 Q189.815 868.019 191.621 864.477 Q193.45 860.912 193.45 853.806 Q193.45 846.676 191.621 843.135 Q189.815 839.57 186.181 839.57 M186.181 835.866 Q191.991 835.866 195.047 840.473 Q198.125 845.056 198.125 853.806 Q198.125 862.533 195.047 867.139 Q191.991 871.722 186.181 871.722 Q180.371 871.722 177.292 867.139 Q174.237 862.533 174.237 853.806 Q174.237 845.056 177.292 840.473 Q180.371 835.866 186.181 835.866 Z" fill="#000000" fill-rule="nonzero" fill-opacity="1" /><path clip-path="url(#clip930)" d="M116.668 600.581 L124.306 600.581 L124.306 574.215 L115.996 575.882 L115.996 571.622 L124.26 569.956 L128.936 569.956 L128.936 600.581 L136.575 600.581 L136.575 604.516 L116.668 604.516 L116.668 600.581 Z" fill="#000000" fill-rule="nonzero" fill-opacity="1" /><path clip-path="url(#clip930)" d="M146.066 569.956 L164.422 569.956 L164.422 573.891 L150.348 573.891 L150.348 582.363 Q151.366 582.016 152.385 581.854 Q153.403 581.669 154.422 581.669 Q160.209 581.669 163.589 584.84 Q166.968 588.011 166.968 593.428 Q166.968 599.007 163.496 602.108 Q160.024 605.187 153.704 605.187 Q151.528 605.187 149.26 604.817 Q147.015 604.446 144.607 603.706 L144.607 599.007 Q146.691 600.141 148.913 600.696 Q151.135 601.252 153.612 601.252 Q157.616 601.252 159.954 599.145 Q162.292 597.039 162.292 593.428 Q162.292 589.817 159.954 587.71 Q157.616 585.604 153.612 585.604 Q151.737 585.604 149.862 586.02 Q148.01 586.437 146.066 587.317 L146.066 569.956 Z" fill="#000000" fill-rule="nonzero" fill-opacity="1" /><path clip-path="url(#clip930)" d="M186.181 573.034 Q182.57 573.034 180.741 576.599 Q178.936 580.141 178.936 587.27 Q178.936 594.377 180.741 597.942 Q182.57 601.483 186.181 601.483 Q189.815 601.483 191.621 597.942 Q193.45 594.377 193.45 587.27 Q193.45 580.141 191.621 576.599 Q189.815 573.034 186.181 573.034 M186.181 569.331 Q191.991 569.331 195.047 573.937 Q198.125 578.521 198.125 587.27 Q198.125 595.997 195.047 600.604 Q191.991 605.187 186.181 605.187 Q180.371 605.187 177.292 600.604 Q174.237 595.997 174.237 587.27 Q174.237 578.521 177.292 573.937 Q180.371 569.331 186.181 569.331 Z" fill="#000000" fill-rule="nonzero" fill-opacity="1" /><path clip-path="url(#clip930)" d="M119.885 334.045 L136.204 334.045 L136.204 337.98 L114.26 337.98 L114.26 334.045 Q116.922 331.291 121.505 326.661 Q126.112 322.008 127.292 320.666 Q129.538 318.143 130.417 316.406 Q131.32 314.647 131.32 312.957 Q131.32 310.203 129.376 308.467 Q127.455 306.731 124.353 306.731 Q122.154 306.731 119.7 307.494 Q117.269 308.258 114.492 309.809 L114.492 305.087 Q117.316 303.953 119.769 303.374 Q122.223 302.795 124.26 302.795 Q129.63 302.795 132.825 305.481 Q136.019 308.166 136.019 312.656 Q136.019 314.786 135.209 316.707 Q134.422 318.605 132.316 321.198 Q131.737 321.869 128.635 325.087 Q125.533 328.281 119.885 334.045 Z" fill="#000000" fill-rule="nonzero" fill-opacity="1" /><path clip-path="url(#clip930)" d="M156.019 306.499 Q152.408 306.499 150.579 310.064 Q148.774 313.606 148.774 320.735 Q148.774 327.842 150.579 331.406 Q152.408 334.948 156.019 334.948 Q159.653 334.948 161.459 331.406 Q163.288 327.842 163.288 320.735 Q163.288 313.606 161.459 310.064 Q159.653 306.499 156.019 306.499 M156.019 302.795 Q161.829 302.795 164.885 307.402 Q167.964 311.985 167.964 320.735 Q167.964 329.462 164.885 334.068 Q161.829 338.652 156.019 338.652 Q150.209 338.652 147.13 334.068 Q144.075 329.462 144.075 320.735 Q144.075 311.985 147.13 307.402 Q150.209 302.795 156.019 302.795 Z" fill="#000000" fill-rule="nonzero" fill-opacity="1" /><path clip-path="url(#clip930)" d="M186.181 306.499 Q182.57 306.499 180.741 310.064 Q178.936 313.606 178.936 320.735 Q178.936 327.842 180.741 331.406 Q182.57 334.948 186.181 334.948 Q189.815 334.948 191.621 331.406 Q193.45 327.842 193.45 320.735 Q193.45 313.606 191.621 310.064 Q189.815 306.499 186.181 306.499 M186.181 302.795 Q191.991 302.795 195.047 307.402 Q198.125 311.985 198.125 320.735 Q198.125 329.462 195.047 334.068 Q191.991 338.652 186.181 338.652 Q180.371 338.652 177.292 334.068 Q174.237 329.462 174.237 320.735 Q174.237 311.985 177.292 307.402 Q180.371 302.795 186.181 302.795 Z" fill="#000000" fill-rule="nonzero" fill-opacity="1" /><path clip-path="url(#clip930)" d="M16.4842 840.023 L16.4842 833.593 L58.5933 833.593 L58.5933 810.454 L64.0042 810.454 L64.0042 840.023 L16.4842 840.023 Z" fill="#000000" fill-rule="nonzero" fill-opacity="1" /><path clip-path="url(#clip930)" d="M32.4621 791.293 Q32.4621 796.004 36.1542 798.741 Q39.8145 801.478 46.212 801.478 Q52.6095 801.478 56.3017 798.773 Q59.9619 796.036 59.9619 791.293 Q59.9619 786.614 56.2698 783.877 Q52.5777 781.14 46.212 781.14 Q39.8781 781.14 36.186 783.877 Q32.4621 786.614 32.4621 791.293 M27.4968 791.293 Q27.4968 783.654 32.4621 779.294 Q37.4273 774.933 46.212 774.933 Q54.9649 774.933 59.9619 779.294 Q64.9272 783.654 64.9272 791.293 Q64.9272 798.964 59.9619 803.324 Q54.9649 807.653 46.212 807.653 Q37.4273 807.653 32.4621 803.324 Q27.4968 798.964 27.4968 791.293 Z" fill="#000000" fill-rule="nonzero" fill-opacity="1" /><path clip-path="url(#clip930)" d="M29.4065 742.5 L34.9447 742.5 Q33.6716 744.983 33.035 747.656 Q32.3984 750.33 32.3984 753.194 Q32.3984 757.555 33.7352 759.751 Q35.072 761.915 37.7456 761.915 Q39.7826 761.915 40.9603 760.356 Q42.1061 758.796 43.1565 754.086 L43.6021 752.08 Q44.9389 745.842 47.3897 743.232 Q49.8086 740.59 54.1691 740.59 Q59.1344 740.59 62.0308 744.537 Q64.9272 748.452 64.9272 755.327 Q64.9272 758.192 64.3543 761.311 Q63.8132 764.398 62.6992 767.836 L56.6518 767.836 Q58.3387 764.589 59.198 761.438 Q60.0256 758.287 60.0256 755.2 Q60.0256 751.062 58.6251 748.834 Q57.1929 746.606 54.6147 746.606 Q52.2276 746.606 50.9545 748.229 Q49.6813 749.821 48.5037 755.263 L48.0262 757.3 Q46.8804 762.743 44.5251 765.162 Q42.138 767.581 38.0002 767.581 Q32.9713 767.581 30.2341 764.016 Q27.4968 760.451 27.4968 753.895 Q27.4968 750.648 27.9743 747.784 Q28.4517 744.919 29.4065 742.5 Z" fill="#000000" fill-rule="nonzero" fill-opacity="1" /><path clip-path="url(#clip930)" d="M29.4065 708.539 L34.9447 708.539 Q33.6716 711.022 33.035 713.695 Q32.3984 716.369 32.3984 719.233 Q32.3984 723.594 33.7352 725.79 Q35.072 727.954 37.7456 727.954 Q39.7826 727.954 40.9603 726.395 Q42.1061 724.835 43.1565 720.125 L43.6021 718.119 Q44.9389 711.881 47.3897 709.271 Q49.8086 706.629 54.1691 706.629 Q59.1344 706.629 62.0308 710.576 Q64.9272 714.491 64.9272 721.366 Q64.9272 724.23 64.3543 727.35 Q63.8132 730.437 62.6992 733.875 L56.6518 733.875 Q58.3387 730.628 59.198 727.477 Q60.0256 724.326 60.0256 721.239 Q60.0256 717.101 58.6251 714.873 Q57.1929 712.645 54.6147 712.645 Q52.2276 712.645 50.9545 714.268 Q49.6813 715.86 48.5037 721.302 L48.0262 723.339 Q46.8804 728.782 44.5251 731.201 Q42.138 733.62 38.0002 733.62 Q32.9713 733.62 30.2341 730.055 Q27.4968 726.49 27.4968 719.934 Q27.4968 716.687 27.9743 713.823 Q28.4517 710.958 29.4065 708.539 Z" fill="#000000" fill-rule="nonzero" fill-opacity="1" /><path clip-path="url(#clip930)" d="M885.656 12.096 L893.839 12.096 L893.839 65.6895 L923.289 65.6895 L923.289 72.576 L885.656 72.576 L885.656 12.096 Z" fill="#000000" fill-rule="nonzero" fill-opacity="1" /><path clip-path="url(#clip930)" d="M947.676 32.4315 Q941.68 32.4315 938.197 37.1306 Q934.713 41.7891 934.713 49.9314 Q934.713 58.0738 938.156 62.7728 Q941.64 67.4314 947.676 67.4314 Q953.631 67.4314 957.114 62.7323 Q960.598 58.0333 960.598 49.9314 Q960.598 41.8701 957.114 37.1711 Q953.631 32.4315 947.676 32.4315 M947.676 26.1121 Q957.398 26.1121 962.948 32.4315 Q968.497 38.7509 968.497 49.9314 Q968.497 61.0714 962.948 67.4314 Q957.398 73.7508 947.676 73.7508 Q937.913 73.7508 932.363 67.4314 Q926.854 61.0714 926.854 49.9314 Q926.854 38.7509 932.363 32.4315 Q937.913 26.1121 947.676 26.1121 Z" fill="#000000" fill-rule="nonzero" fill-opacity="1" /><path clip-path="url(#clip930)" d="M1009.78 28.5427 L1009.78 35.5912 Q1006.62 33.9709 1003.21 33.1607 Q999.811 32.3505 996.165 32.3505 Q990.615 32.3505 987.82 34.0519 Q985.066 35.7533 985.066 39.156 Q985.066 41.7486 987.051 43.2475 Q989.035 44.7058 995.031 46.0426 L997.583 46.6097 Q1005.52 48.3111 1008.84 51.4303 Q1012.21 54.509 1012.21 60.0587 Q1012.21 66.3781 1007.18 70.0644 Q1002.2 73.7508 993.451 73.7508 Q989.805 73.7508 985.835 73.0216 Q981.906 72.3329 977.531 70.9151 L977.531 63.2184 Q981.663 65.3654 985.673 66.4591 Q989.684 67.5124 993.613 67.5124 Q998.879 67.5124 1001.71 65.73 Q1004.55 63.9071 1004.55 60.6258 Q1004.55 57.5877 1002.48 55.9673 Q1000.46 54.3469 993.532 52.8481 L990.939 52.2405 Q984.012 50.7821 980.934 47.7845 Q977.855 44.7463 977.855 39.4801 Q977.855 33.0797 982.392 29.5959 Q986.929 26.1121 995.274 26.1121 Q999.406 26.1121 1003.05 26.7198 Q1006.7 27.3274 1009.78 28.5427 Z" fill="#000000" fill-rule="nonzero" fill-opacity="1" /><path clip-path="url(#clip930)" d="M1053 28.5427 L1053 35.5912 Q1049.84 33.9709 1046.44 33.1607 Q1043.03 32.3505 1039.39 32.3505 Q1033.84 32.3505 1031.04 34.0519 Q1028.29 35.7533 1028.29 39.156 Q1028.29 41.7486 1030.27 43.2475 Q1032.26 44.7058 1038.25 46.0426 L1040.81 46.6097 Q1048.75 48.3111 1052.07 51.4303 Q1055.43 54.509 1055.43 60.0587 Q1055.43 66.3781 1050.41 70.0644 Q1045.42 73.7508 1036.67 73.7508 Q1033.03 73.7508 1029.06 73.0216 Q1025.13 72.3329 1020.75 70.9151 L1020.75 63.2184 Q1024.89 65.3654 1028.9 66.4591 Q1032.91 67.5124 1036.84 67.5124 Q1042.1 67.5124 1044.94 65.73 Q1047.77 63.9071 1047.77 60.6258 Q1047.77 57.5877 1045.71 55.9673 Q1043.68 54.3469 1036.76 52.8481 L1034.16 52.2405 Q1027.24 50.7821 1024.16 47.7845 Q1021.08 44.7463 1021.08 39.4801 Q1021.08 33.0797 1025.62 29.5959 Q1030.15 26.1121 1038.5 26.1121 Q1042.63 26.1121 1046.27 26.7198 Q1049.92 27.3274 1053 28.5427 Z" fill="#000000" fill-rule="nonzero" fill-opacity="1" /><path clip-path="url(#clip930)" d="M1085.61 12.096 L1136.77 12.096 L1136.77 18.9825 L1115.3 18.9825 L1115.3 72.576 L1107.08 72.576 L1107.08 18.9825 L1085.61 18.9825 L1085.61 12.096 Z" fill="#000000" fill-rule="nonzero" fill-opacity="1" /><path clip-path="url(#clip930)" d="M1158.44 34.1734 Q1157.19 33.4443 1155.69 33.1202 Q1154.23 32.7556 1152.45 32.7556 Q1146.13 32.7556 1142.73 36.8875 Q1139.36 40.9789 1139.36 48.6757 L1139.36 72.576 L1131.87 72.576 L1131.87 27.2059 L1139.36 27.2059 L1139.36 34.2544 Q1141.71 30.1225 1145.48 28.1376 Q1149.25 26.1121 1154.64 26.1121 Q1155.41 26.1121 1156.34 26.2337 Q1157.27 26.3147 1158.4 26.5172 L1158.44 34.1734 Z" fill="#000000" fill-rule="nonzero" fill-opacity="1" /><path clip-path="url(#clip930)" d="M1186.88 49.7694 Q1177.85 49.7694 1174.36 51.8354 Q1170.88 53.9013 1170.88 58.8839 Q1170.88 62.8538 1173.47 65.2034 Q1176.11 67.5124 1180.6 67.5124 Q1186.8 67.5124 1190.53 63.1374 Q1194.29 58.7219 1194.29 51.4303 L1194.29 49.7694 L1186.88 49.7694 M1201.75 46.6907 L1201.75 72.576 L1194.29 72.576 L1194.29 65.6895 Q1191.74 69.8214 1187.93 71.8063 Q1184.13 73.7508 1178.62 73.7508 Q1171.65 73.7508 1167.52 69.8619 Q1163.43 65.9325 1163.43 59.3701 Q1163.43 51.7138 1168.53 47.825 Q1173.68 43.9361 1183.84 43.9361 L1194.29 43.9361 L1194.29 43.2069 Q1194.29 38.0623 1190.89 35.2672 Q1187.53 32.4315 1181.41 32.4315 Q1177.52 32.4315 1173.84 33.3632 Q1170.15 34.295 1166.75 36.1584 L1166.75 29.2718 Q1170.84 27.692 1174.69 26.9223 Q1178.54 26.1121 1182.18 26.1121 Q1192.03 26.1121 1196.89 31.2163 Q1201.75 36.3204 1201.75 46.6907 Z" fill="#000000" fill-rule="nonzero" fill-opacity="1" /><path clip-path="url(#clip930)" d="M1254.82 45.1919 L1254.82 72.576 L1247.36 72.576 L1247.36 45.4349 Q1247.36 38.994 1244.85 35.7938 Q1242.34 32.5936 1237.32 32.5936 Q1231.28 32.5936 1227.8 36.4419 Q1224.31 40.2903 1224.31 46.9338 L1224.31 72.576 L1216.82 72.576 L1216.82 27.2059 L1224.31 27.2059 L1224.31 34.2544 Q1226.99 30.163 1230.59 28.1376 Q1234.24 26.1121 1238.98 26.1121 Q1246.79 26.1121 1250.8 30.9732 Q1254.82 35.7938 1254.82 45.1919 Z" fill="#000000" fill-rule="nonzero" fill-opacity="1" /><path clip-path="url(#clip930)" d="M1298.61 28.5427 L1298.61 35.5912 Q1295.45 33.9709 1292.04 33.1607 Q1288.64 32.3505 1284.99 32.3505 Q1279.44 32.3505 1276.65 34.0519 Q1273.9 35.7533 1273.9 39.156 Q1273.9 41.7486 1275.88 43.2475 Q1277.86 44.7058 1283.86 46.0426 L1286.41 46.6097 Q1294.35 48.3111 1297.67 51.4303 Q1301.04 54.509 1301.04 60.0587 Q1301.04 66.3781 1296.01 70.0644 Q1291.03 73.7508 1282.28 73.7508 Q1278.63 73.7508 1274.66 73.0216 Q1270.74 72.3329 1266.36 70.9151 L1266.36 63.2184 Q1270.49 65.3654 1274.5 66.4591 Q1278.51 67.5124 1282.44 67.5124 Q1287.71 67.5124 1290.54 65.73 Q1293.38 63.9071 1293.38 60.6258 Q1293.38 57.5877 1291.31 55.9673 Q1289.29 54.3469 1282.36 52.8481 L1279.77 52.2405 Q1272.84 50.7821 1269.76 47.7845 Q1266.68 44.7463 1266.68 39.4801 Q1266.68 33.0797 1271.22 29.5959 Q1275.76 26.1121 1284.1 26.1121 Q1288.24 26.1121 1291.88 26.7198 Q1295.53 27.3274 1298.61 28.5427 Z" fill="#000000" fill-rule="nonzero" fill-opacity="1" /><path clip-path="url(#clip930)" d="M1335.87 9.54393 L1335.87 15.7418 L1328.74 15.7418 Q1324.73 15.7418 1323.15 17.3622 Q1321.61 18.9825 1321.61 23.1955 L1321.61 27.2059 L1333.89 27.2059 L1333.89 32.9987 L1321.61 32.9987 L1321.61 72.576 L1314.12 72.576 L1314.12 32.9987 L1306.99 32.9987 L1306.99 27.2059 L1314.12 27.2059 L1314.12 24.0462 Q1314.12 16.471 1317.64 13.0277 Q1321.17 9.54393 1328.83 9.54393 L1335.87 9.54393 Z" fill="#000000" fill-rule="nonzero" fill-opacity="1" /><path clip-path="url(#clip930)" d="M1359.69 32.4315 Q1353.7 32.4315 1350.21 37.1306 Q1346.73 41.7891 1346.73 49.9314 Q1346.73 58.0738 1350.17 62.7728 Q1353.66 67.4314 1359.69 67.4314 Q1365.65 67.4314 1369.13 62.7323 Q1372.62 58.0333 1372.62 49.9314 Q1372.62 41.8701 1369.13 37.1711 Q1365.65 32.4315 1359.69 32.4315 M1359.69 26.1121 Q1369.42 26.1121 1374.97 32.4315 Q1380.51 38.7509 1380.51 49.9314 Q1380.51 61.0714 1374.97 67.4314 Q1369.42 73.7508 1359.69 73.7508 Q1349.93 73.7508 1344.38 67.4314 Q1338.87 61.0714 1338.87 49.9314 Q1338.87 38.7509 1344.38 32.4315 Q1349.93 26.1121 1359.69 26.1121 Z" fill="#000000" fill-rule="nonzero" fill-opacity="1" /><path clip-path="url(#clip930)" d="M1419.16 34.1734 Q1417.9 33.4443 1416.41 33.1202 Q1414.95 32.7556 1413.17 32.7556 Q1406.85 32.7556 1403.44 36.8875 Q1400.08 40.9789 1400.08 48.6757 L1400.08 72.576 L1392.59 72.576 L1392.59 27.2059 L1400.08 27.2059 L1400.08 34.2544 Q1402.43 30.1225 1406.2 28.1376 Q1409.96 26.1121 1415.35 26.1121 Q1416.12 26.1121 1417.05 26.2337 Q1417.99 26.3147 1419.12 26.5172 L1419.16 34.1734 Z" fill="#000000" fill-rule="nonzero" fill-opacity="1" /><path clip-path="url(#clip930)" d="M1460.84 35.9153 Q1463.64 30.8922 1467.53 28.5022 Q1471.42 26.1121 1476.68 26.1121 Q1483.77 26.1121 1487.62 31.0947 Q1491.47 36.0368 1491.47 45.1919 L1491.47 72.576 L1483.97 72.576 L1483.97 45.4349 Q1483.97 38.913 1481.67 35.7533 Q1479.36 32.5936 1474.62 32.5936 Q1468.82 32.5936 1465.46 36.4419 Q1462.1 40.2903 1462.1 46.9338 L1462.1 72.576 L1454.61 72.576 L1454.61 45.4349 Q1454.61 38.8725 1452.3 35.7533 Q1449.99 32.5936 1445.17 32.5936 Q1439.46 32.5936 1436.09 36.4824 Q1432.73 40.3308 1432.73 46.9338 L1432.73 72.576 L1425.24 72.576 L1425.24 27.2059 L1432.73 27.2059 L1432.73 34.2544 Q1435.28 30.082 1438.85 28.0971 Q1442.41 26.1121 1447.31 26.1121 Q1452.26 26.1121 1455.7 28.6237 Q1459.18 31.1352 1460.84 35.9153 Z" fill="#000000" fill-rule="nonzero" fill-opacity="1" /><path clip-path="url(#clip930)" d="M1526.96 49.7694 Q1517.92 49.7694 1514.44 51.8354 Q1510.95 53.9013 1510.95 58.8839 Q1510.95 62.8538 1513.55 65.2034 Q1516.18 67.5124 1520.68 67.5124 Q1526.87 67.5124 1530.6 63.1374 Q1534.37 58.7219 1534.37 51.4303 L1534.37 49.7694 L1526.96 49.7694 M1541.82 46.6907 L1541.82 72.576 L1534.37 72.576 L1534.37 65.6895 Q1531.82 69.8214 1528.01 71.8063 Q1524.2 73.7508 1518.69 73.7508 Q1511.72 73.7508 1507.59 69.8619 Q1503.5 65.9325 1503.5 59.3701 Q1503.5 51.7138 1508.6 47.825 Q1513.75 43.9361 1523.92 43.9361 L1534.37 43.9361 L1534.37 43.2069 Q1534.37 38.0623 1530.97 35.2672 Q1527.6 32.4315 1521.49 32.4315 Q1517.6 32.4315 1513.91 33.3632 Q1510.22 34.295 1506.82 36.1584 L1506.82 29.2718 Q1510.91 27.692 1514.76 26.9223 Q1518.61 26.1121 1522.26 26.1121 Q1532.1 26.1121 1536.96 31.2163 Q1541.82 36.3204 1541.82 46.6907 Z" fill="#000000" fill-rule="nonzero" fill-opacity="1" /><path clip-path="url(#clip930)" d="M1564.55 14.324 L1564.55 27.2059 L1579.9 27.2059 L1579.9 32.9987 L1564.55 32.9987 L1564.55 57.6282 Q1564.55 63.1779 1566.05 64.7578 Q1567.59 66.3376 1572.24 66.3376 L1579.9 66.3376 L1579.9 72.576 L1572.24 72.576 Q1563.62 72.576 1560.33 69.3758 Q1557.05 66.1351 1557.05 57.6282 L1557.05 32.9987 L1551.58 32.9987 L1551.58 27.2059 L1557.05 27.2059 L1557.05 14.324 L1564.55 14.324 Z" fill="#000000" fill-rule="nonzero" fill-opacity="1" /><path clip-path="url(#clip930)" d="M1589.7 27.2059 L1597.16 27.2059 L1597.16 72.576 L1589.7 72.576 L1589.7 27.2059 M1589.7 9.54393 L1597.16 9.54393 L1597.16 18.9825 L1589.7 18.9825 L1589.7 9.54393 Z" fill="#000000" fill-rule="nonzero" fill-opacity="1" /><path clip-path="url(#clip930)" d="M1630.33 32.4315 Q1624.34 32.4315 1620.86 37.1306 Q1617.37 41.7891 1617.37 49.9314 Q1617.37 58.0738 1620.81 62.7728 Q1624.3 67.4314 1630.33 67.4314 Q1636.29 67.4314 1639.77 62.7323 Q1643.26 58.0333 1643.26 49.9314 Q1643.26 41.8701 1639.77 37.1711 Q1636.29 32.4315 1630.33 32.4315 M1630.33 26.1121 Q1640.06 26.1121 1645.61 32.4315 Q1651.16 38.7509 1651.16 49.9314 Q1651.16 61.0714 1645.61 67.4314 Q1640.06 73.7508 1630.33 73.7508 Q1620.57 73.7508 1615.02 67.4314 Q1609.51 61.0714 1609.51 49.9314 Q1609.51 38.7509 1615.02 32.4315 Q1620.57 26.1121 1630.33 26.1121 Z" fill="#000000" fill-rule="nonzero" fill-opacity="1" /><path clip-path="url(#clip930)" d="M1701.22 45.1919 L1701.22 72.576 L1693.77 72.576 L1693.77 45.4349 Q1693.77 38.994 1691.26 35.7938 Q1688.75 32.5936 1683.73 32.5936 Q1677.69 32.5936 1674.21 36.4419 Q1670.72 40.2903 1670.72 46.9338 L1670.72 72.576 L1663.23 72.576 L1663.23 27.2059 L1670.72 27.2059 L1670.72 34.2544 Q1673.4 30.163 1677 28.1376 Q1680.65 26.1121 1685.39 26.1121 Q1693.2 26.1121 1697.21 30.9732 Q1701.22 35.7938 1701.22 45.1919 Z" fill="#000000" fill-rule="nonzero" fill-opacity="1" /><circle clip-path="url(#clip932)" cx="294.087" cy="160.256" r="14.4" fill="#009af9" fill-rule="evenodd" fill-opacity="1" stroke="#000000" stroke-opacity="1" stroke-width="3.2"/>
<circle clip-path="url(#clip932)" cx="333.277" cy="160.256" r="14.4" fill="#009af9" fill-rule="evenodd" fill-opacity="1" stroke="#000000" stroke-opacity="1" stroke-width="3.2"/>
<circle clip-path="url(#clip932)" cx="372.467" cy="160.309" r="14.4" fill="#009af9" fill-rule="evenodd" fill-opacity="1" stroke="#000000" stroke-opacity="1" stroke-width="3.2"/>
<circle clip-path="url(#clip932)" cx="411.658" cy="214.406" r="14.4" fill="#009af9" fill-rule="evenodd" fill-opacity="1" stroke="#000000" stroke-opacity="1" stroke-width="3.2"/>
<circle clip-path="url(#clip932)" cx="450.848" cy="1043.72" r="14.4" fill="#009af9" fill-rule="evenodd" fill-opacity="1" stroke="#000000" stroke-opacity="1" stroke-width="3.2"/>
<circle clip-path="url(#clip932)" cx="490.038" cy="1364.9" r="14.4" fill="#009af9" fill-rule="evenodd" fill-opacity="1" stroke="#000000" stroke-opacity="1" stroke-width="3.2"/>
<circle clip-path="url(#clip932)" cx="529.229" cy="1335.65" r="14.4" fill="#009af9" fill-rule="evenodd" fill-opacity="1" stroke="#000000" stroke-opacity="1" stroke-width="3.2"/>
<circle clip-path="url(#clip932)" cx="568.419" cy="1337.56" r="14.4" fill="#009af9" fill-rule="evenodd" fill-opacity="1" stroke="#000000" stroke-opacity="1" stroke-width="3.2"/>
<circle clip-path="url(#clip932)" cx="607.61" cy="1358.83" r="14.4" fill="#009af9" fill-rule="evenodd" fill-opacity="1" stroke="#000000" stroke-opacity="1" stroke-width="3.2"/>
<circle clip-path="url(#clip932)" cx="646.8" cy="1373.55" r="14.4" fill="#009af9" fill-rule="evenodd" fill-opacity="1" stroke="#000000" stroke-opacity="1" stroke-width="3.2"/>
<circle clip-path="url(#clip932)" cx="685.99" cy="1378.18" r="14.4" fill="#009af9" fill-rule="evenodd" fill-opacity="1" stroke="#000000" stroke-opacity="1" stroke-width="3.2"/>
<circle clip-path="url(#clip932)" cx="725.181" cy="1379.96" r="14.4" fill="#009af9" fill-rule="evenodd" fill-opacity="1" stroke="#000000" stroke-opacity="1" stroke-width="3.2"/>
<circle clip-path="url(#clip932)" cx="764.371" cy="1381.61" r="14.4" fill="#009af9" fill-rule="evenodd" fill-opacity="1" stroke="#000000" stroke-opacity="1" stroke-width="3.2"/>
<circle clip-path="url(#clip932)" cx="803.561" cy="1383.78" r="14.4" fill="#009af9" fill-rule="evenodd" fill-opacity="1" stroke="#000000" stroke-opacity="1" stroke-width="3.2"/>
<circle clip-path="url(#clip932)" cx="842.752" cy="1385.46" r="14.4" fill="#009af9" fill-rule="evenodd" fill-opacity="1" stroke="#000000" stroke-opacity="1" stroke-width="3.2"/>
<circle clip-path="url(#clip932)" cx="881.942" cy="1383.3" r="14.4" fill="#009af9" fill-rule="evenodd" fill-opacity="1" stroke="#000000" stroke-opacity="1" stroke-width="3.2"/>
<circle clip-path="url(#clip932)" cx="921.132" cy="1381.92" r="14.4" fill="#009af9" fill-rule="evenodd" fill-opacity="1" stroke="#000000" stroke-opacity="1" stroke-width="3.2"/>
<circle clip-path="url(#clip932)" cx="960.323" cy="1384.03" r="14.4" fill="#009af9" fill-rule="evenodd" fill-opacity="1" stroke="#000000" stroke-opacity="1" stroke-width="3.2"/>
<circle clip-path="url(#clip932)" cx="999.513" cy="1385.3" r="14.4" fill="#009af9" fill-rule="evenodd" fill-opacity="1" stroke="#000000" stroke-opacity="1" stroke-width="3.2"/>
<circle clip-path="url(#clip932)" cx="1038.7" cy="1384.85" r="14.4" fill="#009af9" fill-rule="evenodd" fill-opacity="1" stroke="#000000" stroke-opacity="1" stroke-width="3.2"/>
<circle clip-path="url(#clip932)" cx="1077.89" cy="1384.02" r="14.4" fill="#009af9" fill-rule="evenodd" fill-opacity="1" stroke="#000000" stroke-opacity="1" stroke-width="3.2"/>
<circle clip-path="url(#clip932)" cx="1117.08" cy="1383.55" r="14.4" fill="#009af9" fill-rule="evenodd" fill-opacity="1" stroke="#000000" stroke-opacity="1" stroke-width="3.2"/>
<circle clip-path="url(#clip932)" cx="1156.27" cy="1383.57" r="14.4" fill="#009af9" fill-rule="evenodd" fill-opacity="1" stroke="#000000" stroke-opacity="1" stroke-width="3.2"/>
<circle clip-path="url(#clip932)" cx="1195.46" cy="1383.96" r="14.4" fill="#009af9" fill-rule="evenodd" fill-opacity="1" stroke="#000000" stroke-opacity="1" stroke-width="3.2"/>
<circle clip-path="url(#clip932)" cx="1234.66" cy="1384.46" r="14.4" fill="#009af9" fill-rule="evenodd" fill-opacity="1" stroke="#000000" stroke-opacity="1" stroke-width="3.2"/>
<circle clip-path="url(#clip932)" cx="1273.85" cy="1384.78" r="14.4" fill="#009af9" fill-rule="evenodd" fill-opacity="1" stroke="#000000" stroke-opacity="1" stroke-width="3.2"/>
<circle clip-path="url(#clip932)" cx="1313.04" cy="1384.81" r="14.4" fill="#009af9" fill-rule="evenodd" fill-opacity="1" stroke="#000000" stroke-opacity="1" stroke-width="3.2"/>
<circle clip-path="url(#clip932)" cx="1352.23" cy="1384.61" r="14.4" fill="#009af9" fill-rule="evenodd" fill-opacity="1" stroke="#000000" stroke-opacity="1" stroke-width="3.2"/>
<circle clip-path="url(#clip932)" cx="1391.42" cy="1384.35" r="14.4" fill="#009af9" fill-rule="evenodd" fill-opacity="1" stroke="#000000" stroke-opacity="1" stroke-width="3.2"/>
<circle clip-path="url(#clip932)" cx="1430.61" cy="1384.33" r="14.4" fill="#009af9" fill-rule="evenodd" fill-opacity="1" stroke="#000000" stroke-opacity="1" stroke-width="3.2"/>
<circle clip-path="url(#clip932)" cx="1469.8" cy="1384.74" r="14.4" fill="#009af9" fill-rule="evenodd" fill-opacity="1" stroke="#000000" stroke-opacity="1" stroke-width="3.2"/>
<circle clip-path="url(#clip932)" cx="1508.99" cy="1385.31" r="14.4" fill="#009af9" fill-rule="evenodd" fill-opacity="1" stroke="#000000" stroke-opacity="1" stroke-width="3.2"/>
<circle clip-path="url(#clip932)" cx="1548.18" cy="1385.56" r="14.4" fill="#009af9" fill-rule="evenodd" fill-opacity="1" stroke="#000000" stroke-opacity="1" stroke-width="3.2"/>
<circle clip-path="url(#clip932)" cx="1587.37" cy="1385.46" r="14.4" fill="#009af9" fill-rule="evenodd" fill-opacity="1" stroke="#000000" stroke-opacity="1" stroke-width="3.2"/>
<circle clip-path="url(#clip932)" cx="1626.56" cy="1385.44" r="14.4" fill="#009af9" fill-rule="evenodd" fill-opacity="1" stroke="#000000" stroke-opacity="1" stroke-width="3.2"/>
<circle clip-path="url(#clip932)" cx="1665.75" cy="1385.78" r="14.4" fill="#009af9" fill-rule="evenodd" fill-opacity="1" stroke="#000000" stroke-opacity="1" stroke-width="3.2"/>
<circle clip-path="url(#clip932)" cx="1704.94" cy="1386.2" r="14.4" fill="#009af9" fill-rule="evenodd" fill-opacity="1" stroke="#000000" stroke-opacity="1" stroke-width="3.2"/>
<circle clip-path="url(#clip932)" cx="1744.13" cy="1386.05" r="14.4" fill="#009af9" fill-rule="evenodd" fill-opacity="1" stroke="#000000" stroke-opacity="1" stroke-width="3.2"/>
<circle clip-path="url(#clip932)" cx="1783.32" cy="1385.66" r="14.4" fill="#009af9" fill-rule="evenodd" fill-opacity="1" stroke="#000000" stroke-opacity="1" stroke-width="3.2"/>
<circle clip-path="url(#clip932)" cx="1822.51" cy="1385.94" r="14.4" fill="#009af9" fill-rule="evenodd" fill-opacity="1" stroke="#000000" stroke-opacity="1" stroke-width="3.2"/>
<circle clip-path="url(#clip932)" cx="1861.7" cy="1386.2" r="14.4" fill="#009af9" fill-rule="evenodd" fill-opacity="1" stroke="#000000" stroke-opacity="1" stroke-width="3.2"/>
<circle clip-path="url(#clip932)" cx="1900.89" cy="1386.04" r="14.4" fill="#009af9" fill-rule="evenodd" fill-opacity="1" stroke="#000000" stroke-opacity="1" stroke-width="3.2"/>
<circle clip-path="url(#clip932)" cx="1940.08" cy="1385.85" r="14.4" fill="#009af9" fill-rule="evenodd" fill-opacity="1" stroke="#000000" stroke-opacity="1" stroke-width="3.2"/>
<circle clip-path="url(#clip932)" cx="1979.27" cy="1385.92" r="14.4" fill="#009af9" fill-rule="evenodd" fill-opacity="1" stroke="#000000" stroke-opacity="1" stroke-width="3.2"/>
<circle clip-path="url(#clip932)" cx="2018.46" cy="1386.13" r="14.4" fill="#009af9" fill-rule="evenodd" fill-opacity="1" stroke="#000000" stroke-opacity="1" stroke-width="3.2"/>
<circle clip-path="url(#clip932)" cx="2057.65" cy="1386.18" r="14.4" fill="#009af9" fill-rule="evenodd" fill-opacity="1" stroke="#000000" stroke-opacity="1" stroke-width="3.2"/>
<circle clip-path="url(#clip932)" cx="2096.84" cy="1386.05" r="14.4" fill="#009af9" fill-rule="evenodd" fill-opacity="1" stroke="#000000" stroke-opacity="1" stroke-width="3.2"/>
<circle clip-path="url(#clip932)" cx="2136.03" cy="1386.09" r="14.4" fill="#009af9" fill-rule="evenodd" fill-opacity="1" stroke="#000000" stroke-opacity="1" stroke-width="3.2"/>
<circle clip-path="url(#clip932)" cx="2175.22" cy="1386.3" r="14.4" fill="#009af9" fill-rule="evenodd" fill-opacity="1" stroke="#000000" stroke-opacity="1" stroke-width="3.2"/>
<circle clip-path="url(#clip932)" cx="2214.41" cy="1386.4" r="14.4" fill="#009af9" fill-rule="evenodd" fill-opacity="1" stroke="#000000" stroke-opacity="1" stroke-width="3.2"/>
<circle clip-path="url(#clip932)" cx="2253.6" cy="1386.38" r="14.4" fill="#009af9" fill-rule="evenodd" fill-opacity="1" stroke="#000000" stroke-opacity="1" stroke-width="3.2"/>
<circle clip-path="url(#clip932)" cx="2292.79" cy="1386.4" r="14.4" fill="#009af9" fill-rule="evenodd" fill-opacity="1" stroke="#000000" stroke-opacity="1" stroke-width="3.2"/>
<circle clip-path="url(#clip932)" cx="294.087" cy="160.256" r="14.4" fill="#e26f46" fill-rule="evenodd" fill-opacity="1" stroke="#000000" stroke-opacity="1" stroke-width="3.2"/>
<circle clip-path="url(#clip932)" cx="333.277" cy="160.256" r="14.4" fill="#e26f46" fill-rule="evenodd" fill-opacity="1" stroke="#000000" stroke-opacity="1" stroke-width="3.2"/>
<circle clip-path="url(#clip932)" cx="372.467" cy="160.309" r="14.4" fill="#e26f46" fill-rule="evenodd" fill-opacity="1" stroke="#000000" stroke-opacity="1" stroke-width="3.2"/>
<circle clip-path="url(#clip932)" cx="411.658" cy="214.406" r="14.4" fill="#e26f46" fill-rule="evenodd" fill-opacity="1" stroke="#000000" stroke-opacity="1" stroke-width="3.2"/>
<circle clip-path="url(#clip932)" cx="450.848" cy="1043.72" r="14.4" fill="#e26f46" fill-rule="evenodd" fill-opacity="1" stroke="#000000" stroke-opacity="1" stroke-width="3.2"/>
<circle clip-path="url(#clip932)" cx="490.038" cy="1364.9" r="14.4" fill="#e26f46" fill-rule="evenodd" fill-opacity="1" stroke="#000000" stroke-opacity="1" stroke-width="3.2"/>
<circle clip-path="url(#clip932)" cx="529.229" cy="1335.65" r="14.4" fill="#e26f46" fill-rule="evenodd" fill-opacity="1" stroke="#000000" stroke-opacity="1" stroke-width="3.2"/>
<circle clip-path="url(#clip932)" cx="568.419" cy="1337.56" r="14.4" fill="#e26f46" fill-rule="evenodd" fill-opacity="1" stroke="#000000" stroke-opacity="1" stroke-width="3.2"/>
<circle clip-path="url(#clip932)" cx="607.61" cy="1358.83" r="14.4" fill="#e26f46" fill-rule="evenodd" fill-opacity="1" stroke="#000000" stroke-opacity="1" stroke-width="3.2"/>
<circle clip-path="url(#clip932)" cx="646.8" cy="1373.55" r="14.4" fill="#e26f46" fill-rule="evenodd" fill-opacity="1" stroke="#000000" stroke-opacity="1" stroke-width="3.2"/>
<circle clip-path="url(#clip932)" cx="685.99" cy="1378.18" r="14.4" fill="#e26f46" fill-rule="evenodd" fill-opacity="1" stroke="#000000" stroke-opacity="1" stroke-width="3.2"/>
<circle clip-path="url(#clip932)" cx="725.181" cy="1379.96" r="14.4" fill="#e26f46" fill-rule="evenodd" fill-opacity="1" stroke="#000000" stroke-opacity="1" stroke-width="3.2"/>
<circle clip-path="url(#clip932)" cx="764.371" cy="1381.61" r="14.4" fill="#e26f46" fill-rule="evenodd" fill-opacity="1" stroke="#000000" stroke-opacity="1" stroke-width="3.2"/>
<circle clip-path="url(#clip932)" cx="803.561" cy="1383.78" r="14.4" fill="#e26f46" fill-rule="evenodd" fill-opacity="1" stroke="#000000" stroke-opacity="1" stroke-width="3.2"/>
<circle clip-path="url(#clip932)" cx="842.752" cy="1385.46" r="14.4" fill="#e26f46" fill-rule="evenodd" fill-opacity="1" stroke="#000000" stroke-opacity="1" stroke-width="3.2"/>
<circle clip-path="url(#clip932)" cx="881.942" cy="1383.3" r="14.4" fill="#e26f46" fill-rule="evenodd" fill-opacity="1" stroke="#000000" stroke-opacity="1" stroke-width="3.2"/>
<circle clip-path="url(#clip932)" cx="921.132" cy="1381.92" r="14.4" fill="#e26f46" fill-rule="evenodd" fill-opacity="1" stroke="#000000" stroke-opacity="1" stroke-width="3.2"/>
<circle clip-path="url(#clip932)" cx="960.323" cy="1384.03" r="14.4" fill="#e26f46" fill-rule="evenodd" fill-opacity="1" stroke="#000000" stroke-opacity="1" stroke-width="3.2"/>
<circle clip-path="url(#clip932)" cx="999.513" cy="1385.3" r="14.4" fill="#e26f46" fill-rule="evenodd" fill-opacity="1" stroke="#000000" stroke-opacity="1" stroke-width="3.2"/>
<circle clip-path="url(#clip932)" cx="1038.7" cy="1384.85" r="14.4" fill="#e26f46" fill-rule="evenodd" fill-opacity="1" stroke="#000000" stroke-opacity="1" stroke-width="3.2"/>
<circle clip-path="url(#clip932)" cx="1077.89" cy="1384.02" r="14.4" fill="#e26f46" fill-rule="evenodd" fill-opacity="1" stroke="#000000" stroke-opacity="1" stroke-width="3.2"/>
<circle clip-path="url(#clip932)" cx="1117.08" cy="1383.55" r="14.4" fill="#e26f46" fill-rule="evenodd" fill-opacity="1" stroke="#000000" stroke-opacity="1" stroke-width="3.2"/>
<circle clip-path="url(#clip932)" cx="1156.27" cy="1383.57" r="14.4" fill="#e26f46" fill-rule="evenodd" fill-opacity="1" stroke="#000000" stroke-opacity="1" stroke-width="3.2"/>
<circle clip-path="url(#clip932)" cx="1195.46" cy="1383.96" r="14.4" fill="#e26f46" fill-rule="evenodd" fill-opacity="1" stroke="#000000" stroke-opacity="1" stroke-width="3.2"/>
<circle clip-path="url(#clip932)" cx="1234.66" cy="1384.46" r="14.4" fill="#e26f46" fill-rule="evenodd" fill-opacity="1" stroke="#000000" stroke-opacity="1" stroke-width="3.2"/>
<circle clip-path="url(#clip932)" cx="1273.85" cy="1384.78" r="14.4" fill="#e26f46" fill-rule="evenodd" fill-opacity="1" stroke="#000000" stroke-opacity="1" stroke-width="3.2"/>
<circle clip-path="url(#clip932)" cx="1313.04" cy="1384.81" r="14.4" fill="#e26f46" fill-rule="evenodd" fill-opacity="1" stroke="#000000" stroke-opacity="1" stroke-width="3.2"/>
<circle clip-path="url(#clip932)" cx="1352.23" cy="1384.61" r="14.4" fill="#e26f46" fill-rule="evenodd" fill-opacity="1" stroke="#000000" stroke-opacity="1" stroke-width="3.2"/>
<circle clip-path="url(#clip932)" cx="1391.42" cy="1384.35" r="14.4" fill="#e26f46" fill-rule="evenodd" fill-opacity="1" stroke="#000000" stroke-opacity="1" stroke-width="3.2"/>
<circle clip-path="url(#clip932)" cx="1430.61" cy="1384.33" r="14.4" fill="#e26f46" fill-rule="evenodd" fill-opacity="1" stroke="#000000" stroke-opacity="1" stroke-width="3.2"/>
<circle clip-path="url(#clip932)" cx="1469.8" cy="1384.74" r="14.4" fill="#e26f46" fill-rule="evenodd" fill-opacity="1" stroke="#000000" stroke-opacity="1" stroke-width="3.2"/>
<circle clip-path="url(#clip932)" cx="1508.99" cy="1385.31" r="14.4" fill="#e26f46" fill-rule="evenodd" fill-opacity="1" stroke="#000000" stroke-opacity="1" stroke-width="3.2"/>
<circle clip-path="url(#clip932)" cx="1548.18" cy="1385.56" r="14.4" fill="#e26f46" fill-rule="evenodd" fill-opacity="1" stroke="#000000" stroke-opacity="1" stroke-width="3.2"/>
<circle clip-path="url(#clip932)" cx="1587.37" cy="1385.46" r="14.4" fill="#e26f46" fill-rule="evenodd" fill-opacity="1" stroke="#000000" stroke-opacity="1" stroke-width="3.2"/>
<circle clip-path="url(#clip932)" cx="1626.56" cy="1385.44" r="14.4" fill="#e26f46" fill-rule="evenodd" fill-opacity="1" stroke="#000000" stroke-opacity="1" stroke-width="3.2"/>
<circle clip-path="url(#clip932)" cx="1665.75" cy="1385.78" r="14.4" fill="#e26f46" fill-rule="evenodd" fill-opacity="1" stroke="#000000" stroke-opacity="1" stroke-width="3.2"/>
<circle clip-path="url(#clip932)" cx="1704.94" cy="1386.2" r="14.4" fill="#e26f46" fill-rule="evenodd" fill-opacity="1" stroke="#000000" stroke-opacity="1" stroke-width="3.2"/>
<circle clip-path="url(#clip932)" cx="1744.13" cy="1386.05" r="14.4" fill="#e26f46" fill-rule="evenodd" fill-opacity="1" stroke="#000000" stroke-opacity="1" stroke-width="3.2"/>
<circle clip-path="url(#clip932)" cx="1783.32" cy="1385.66" r="14.4" fill="#e26f46" fill-rule="evenodd" fill-opacity="1" stroke="#000000" stroke-opacity="1" stroke-width="3.2"/>
<circle clip-path="url(#clip932)" cx="1822.51" cy="1385.94" r="14.4" fill="#e26f46" fill-rule="evenodd" fill-opacity="1" stroke="#000000" stroke-opacity="1" stroke-width="3.2"/>
<circle clip-path="url(#clip932)" cx="1861.7" cy="1386.2" r="14.4" fill="#e26f46" fill-rule="evenodd" fill-opacity="1" stroke="#000000" stroke-opacity="1" stroke-width="3.2"/>
<circle clip-path="url(#clip932)" cx="1900.89" cy="1386.04" r="14.4" fill="#e26f46" fill-rule="evenodd" fill-opacity="1" stroke="#000000" stroke-opacity="1" stroke-width="3.2"/>
<circle clip-path="url(#clip932)" cx="1940.08" cy="1385.85" r="14.4" fill="#e26f46" fill-rule="evenodd" fill-opacity="1" stroke="#000000" stroke-opacity="1" stroke-width="3.2"/>
<circle clip-path="url(#clip932)" cx="1979.27" cy="1385.92" r="14.4" fill="#e26f46" fill-rule="evenodd" fill-opacity="1" stroke="#000000" stroke-opacity="1" stroke-width="3.2"/>
<circle clip-path="url(#clip932)" cx="2018.46" cy="1386.13" r="14.4" fill="#e26f46" fill-rule="evenodd" fill-opacity="1" stroke="#000000" stroke-opacity="1" stroke-width="3.2"/>
<circle clip-path="url(#clip932)" cx="2057.65" cy="1386.18" r="14.4" fill="#e26f46" fill-rule="evenodd" fill-opacity="1" stroke="#000000" stroke-opacity="1" stroke-width="3.2"/>
<circle clip-path="url(#clip932)" cx="2096.84" cy="1386.05" r="14.4" fill="#e26f46" fill-rule="evenodd" fill-opacity="1" stroke="#000000" stroke-opacity="1" stroke-width="3.2"/>
<circle clip-path="url(#clip932)" cx="2136.03" cy="1386.09" r="14.4" fill="#e26f46" fill-rule="evenodd" fill-opacity="1" stroke="#000000" stroke-opacity="1" stroke-width="3.2"/>
<circle clip-path="url(#clip932)" cx="2175.22" cy="1386.3" r="14.4" fill="#e26f46" fill-rule="evenodd" fill-opacity="1" stroke="#000000" stroke-opacity="1" stroke-width="3.2"/>
<circle clip-path="url(#clip932)" cx="2214.41" cy="1386.4" r="14.4" fill="#e26f46" fill-rule="evenodd" fill-opacity="1" stroke="#000000" stroke-opacity="1" stroke-width="3.2"/>
<circle clip-path="url(#clip932)" cx="2253.6" cy="1386.38" r="14.4" fill="#e26f46" fill-rule="evenodd" fill-opacity="1" stroke="#000000" stroke-opacity="1" stroke-width="3.2"/>
<circle clip-path="url(#clip932)" cx="2292.79" cy="1386.4" r="14.4" fill="#e26f46" fill-rule="evenodd" fill-opacity="1" stroke="#000000" stroke-opacity="1" stroke-width="3.2"/>
<path clip-path="url(#clip930)" d="M2017.84 322.316 L2282.13 322.316 L2282.13 166.796 L2017.84 166.796  Z" fill="#ffffff" fill-rule="evenodd" fill-opacity="1"/>
<polyline clip-path="url(#clip930)" style="stroke:#000000; stroke-linecap:round; stroke-linejoin:round; stroke-width:4; stroke-opacity:1; fill:none" points="2017.84,322.316 2282.13,322.316 2282.13,166.796 2017.84,166.796 2017.84,322.316 "/>
<circle clip-path="url(#clip930)" cx="2112" cy="218.636" r="20.48" fill="#009af9" fill-rule="evenodd" fill-opacity="1" stroke="#000000" stroke-opacity="1" stroke-width="4.55111"/>
<path clip-path="url(#clip930)" d="M2220.01 238.323 Q2218.2 242.953 2216.49 244.365 Q2214.78 245.777 2211.9 245.777 L2208.5 245.777 L2208.5 242.212 L2211 242.212 Q2212.76 242.212 2213.73 241.379 Q2214.71 240.545 2215.89 237.443 L2216.65 235.499 L2206.16 209.99 L2210.68 209.99 L2218.78 230.268 L2226.88 209.99 L2231.4 209.99 L2220.01 238.323 Z" fill="#000000" fill-rule="nonzero" fill-opacity="1" /><path clip-path="url(#clip930)" d="M2238.69 231.981 L2246.33 231.981 L2246.33 205.615 L2238.02 207.282 L2238.02 203.022 L2246.28 201.356 L2250.96 201.356 L2250.96 231.981 L2258.59 231.981 L2258.59 235.916 L2238.69 235.916 L2238.69 231.981 Z" fill="#000000" fill-rule="nonzero" fill-opacity="1" /><circle clip-path="url(#clip930)" cx="2112" cy="270.476" r="20.48" fill="#e26f46" fill-rule="evenodd" fill-opacity="1" stroke="#000000" stroke-opacity="1" stroke-width="4.55111"/>
<path clip-path="url(#clip930)" d="M2220.01 290.163 Q2218.2 294.793 2216.49 296.205 Q2214.78 297.617 2211.9 297.617 L2208.5 297.617 L2208.5 294.052 L2211 294.052 Q2212.76 294.052 2213.73 293.219 Q2214.71 292.385 2215.89 289.283 L2216.65 287.339 L2206.16 261.83 L2210.68 261.83 L2218.78 282.108 L2226.88 261.83 L2231.4 261.83 L2220.01 290.163 Z" fill="#000000" fill-rule="nonzero" fill-opacity="1" /><path clip-path="url(#clip930)" d="M2241.9 283.821 L2258.22 283.821 L2258.22 287.756 L2236.28 287.756 L2236.28 283.821 Q2238.94 281.066 2243.53 276.436 Q2248.13 271.784 2249.31 270.441 Q2251.56 267.918 2252.44 266.182 Q2253.34 264.423 2253.34 262.733 Q2253.34 259.978 2251.4 258.242 Q2249.47 256.506 2246.37 256.506 Q2244.17 256.506 2241.72 257.27 Q2239.29 258.034 2236.51 259.585 L2236.51 254.862 Q2239.34 253.728 2241.79 253.149 Q2244.24 252.571 2246.28 252.571 Q2251.65 252.571 2254.84 255.256 Q2258.04 257.941 2258.04 262.432 Q2258.04 264.561 2257.23 266.483 Q2256.44 268.381 2254.34 270.973 Q2253.76 271.645 2250.65 274.862 Q2247.55 278.057 2241.9 283.821 Z" fill="#000000" fill-rule="nonzero" fill-opacity="1" /></svg>
